<?xml version="1.0" encoding="UTF-8"?><svg id="Layer_1" xmlns="http://www.w3.org/2000/svg" viewBox="0 0 1019.52 1024"><defs><style>.cls-1{fill:#1e1e24;}.cls-2{fill:#6cda6a;}.cls-3{fill:#f69a4a;}.cls-4{fill:#1d2225;}.cls-5{fill:#353b42;}.cls-6{fill:#58d7e9;}.cls-7{fill:#ec474b;}</style></defs><path class="cls-4" d="M626.79,899.7h135.23v123.18h-113.46c-12.02,0-21.77-9.76-21.77-21.77v-101.41h0Z"/><path class="cls-4" d="M712.06,927.49h107.9c19.52,0,35.36,15.85,35.36,35.36v48.46c0,6.39-5.19,11.57-11.57,11.57h-131.69v-95.4h0Z"/><path class="cls-4" d="M279.27,900.82h113.46v123.18h-135.23v-101.41c0-12.02,9.76-21.77,21.77-21.77Z" transform="translate(650.23 1924.82) rotate(-180)"/><path class="cls-4" d="M164.19,928.6h131.69c6.39,0,11.57,5.19,11.57,11.57v48.46c0,19.52-15.85,35.36-35.36,35.36h-107.9v-95.4h0Z" transform="translate(471.65 1952.6) rotate(180)"/><rect class="cls-4" x="749.09" y="41.51" width="167.37" height="84.35" rx="19.05" ry="19.05" transform="translate(916.46 -749.09) rotate(90)"/><rect class="cls-4" x="103.06" y="41.51" width="167.37" height="84.35" rx="19.05" ry="19.05" transform="translate(270.43 -103.06) rotate(90)"/><rect class="cls-4" y="102.62" width="1018.38" height="401.49" rx="50.06" ry="50.06"/><rect class="cls-5" x="23.97" y="124.8" width="972.72" height="357.62" rx="40.47" ry="40.47"/><rect class="cls-1" x="72.57" y="167.37" width="875.52" height="272.47" rx="27.15" ry="27.15"/><rect class="cls-4" x="1.14" y="504.11" width="1018.38" height="401.49" rx="50.06" ry="50.06"/><rect class="cls-5" x="25.1" y="526.29" width="972.72" height="357.62" rx="40.47" ry="40.47"/><rect class="cls-1" x="73.7" y="568.86" width="875.52" height="272.47" rx="27.15" ry="27.15"/><circle class="cls-2" cx="152.27" cy="649.25" r="29.72"/><circle class="cls-2" cx="152.27" cy="760.72" r="29.72"/><circle class="cls-3" cx="271.43" cy="649.25" r="29.72"/><circle class="cls-7" cx="271.43" cy="760.72" r="29.72"/><circle class="cls-2" cx="390.6" cy="649.25" r="29.72"/><circle class="cls-2" cx="390.6" cy="760.72" r="29.72"/><circle class="cls-3" cx="509.76" cy="649.25" r="29.72"/><circle class="cls-3" cx="509.76" cy="760.72" r="29.72"/><circle class="cls-7" cx="628.92" cy="649.25" r="29.72"/><circle class="cls-2" cx="628.92" cy="760.72" r="29.72"/><circle class="cls-3" cx="748.09" cy="649.25" r="29.72"/><circle class="cls-2" cx="748.09" cy="760.72" r="29.72"/><circle class="cls-2" cx="867.25" cy="649.25" r="29.72"/><circle class="cls-7" cx="867.25" cy="760.72" r="29.72"/><circle class="cls-6" cx="454.53" cy="354.96" r="17.71"/><circle class="cls-6" cx="564.99" cy="354.96" r="17.71"/><circle class="cls-6" cx="490.46" cy="371.81" r="17.71"/><circle class="cls-6" cx="529.57" cy="371.81" r="17.71"/><circle class="cls-6" cx="288.5" cy="277.16" r="59.58"/><circle class="cls-6" cx="731.02" cy="277.16" r="59.58"/></svg>